<svg width="500" height="500" viewBox="0 0 500 500" fill="none" xmlns="http://www.w3.org/2000/svg">
    <path fill-rule="evenodd" clip-rule="evenodd" d="M250 500C388.071 500 500 388.071 500 250C500 111.929 388.071 0 250 0C111.929 0 0 111.929 0 250C0 388.071 111.929 500 250 500ZM210 90C210 81.7157 216.716 75 225 75H275C283.284 75 290 81.7157 290 90V210H410C418.284 210 425 216.716 425 225V275C425 283.284 418.284 290 410 290H290V410C290 418.284 283.284 425 275 425H225C216.716 425 210 418.284 210 410V290H90C81.7157 290 75 283.284 75 275V225C75 216.716 81.7157 210 90 210H210V90Z" fill="white"/>
</svg>
