<svg width="500" height="500" viewBox="0 0 500 500" fill="none" xmlns="http://www.w3.org/2000/svg">
    <circle cx="250" cy="250" r="250" fill="#E6E6E6"/>
    <path fill-rule="evenodd" clip-rule="evenodd" d="M250 90C237.376 90 227.143 100.234 227.143 112.857V212.143C227.143 220.427 220.427 227.143 212.143 227.143H112.857C100.233 227.143 90 237.376 90 250C90 262.624 100.234 272.857 112.857 272.857H212.143C220.427 272.857 227.143 279.573 227.143 287.857V387.143C227.143 399.767 237.376 410 250 410C262.624 410 272.857 399.767 272.857 387.143V287.857C272.857 279.573 279.573 272.857 287.857 272.857H387.143C399.767 272.857 410 262.624 410 250C410 237.376 399.767 227.143 387.143 227.143H287.857C279.573 227.143 272.857 220.427 272.857 212.143V112.857C272.857 100.233 262.624 90 250 90Z" fill="black"/>
</svg>
