<svg width="379" height="380" viewBox="0 0 379 380" fill="none" xmlns="http://www.w3.org/2000/svg">
    <path fill-rule="evenodd" clip-rule="evenodd" d="M168.34 260.711C180.056 248.995 199.051 248.995 210.767 260.711L320.368 370.312C332.084 382.028 351.079 382.028 362.795 370.312L369.866 363.241C381.581 351.525 381.581 332.53 369.866 320.815L260.264 211.213C248.548 199.497 248.548 180.503 260.264 168.787L369.866 59.1853C381.581 47.4695 381.581 28.4746 369.866 16.7589L362.795 9.68779C351.079 -2.02794 332.084 -2.02794 320.368 9.68779L210.767 119.289C199.051 131.005 180.056 131.005 168.34 119.289L58.7386 9.68777C47.0229 -2.02795 28.028 -2.02796 16.3122 9.68777L9.24117 16.7588C-2.47456 28.4746 -2.47456 47.4695 9.24117 59.1852L118.843 168.787C130.558 180.503 130.558 199.497 118.843 211.213L9.24117 320.815C-2.47456 332.53 -2.47456 351.525 9.24117 363.241L16.3122 370.312C28.028 382.028 47.0229 382.028 58.7387 370.312L168.34 260.711Z" fill="#000000"/>
</svg>
