<svg width="500" height="500" viewBox="0 0 500 500" fill="none" xmlns="http://www.w3.org/2000/svg">
    <path fill-rule="evenodd" clip-rule="evenodd" d="M441.693 89.5113C395.834 34.793 326.98 0 250 0C172.98 0 104.095 34.829 58.2354 89.5963L249.885 192.5L441.693 89.5113ZM29.8825 131.373L249.885 249.5L470.066 131.277C489.16 166.596 500 207.032 500 250C500 388.071 388.071 500 250 500C111.929 500 0 388.071 0 250C0 207.071 10.8203 166.669 29.8825 131.373Z" fill="#EDEDED"/>
    <path d="M250 250L315 365L250 480L185 365L250 250Z" fill="#767676"/>
</svg>
